<?xml version="1.0" standalone="no"?>
<!DOCTYPE svg PUBLIC "-//W3C//DTD SVG 20010904//EN"
 "http://www.w3.org/TR/2001/REC-SVG-20010904/DTD/svg10.dtd">
<svg version="1.0" xmlns="http://www.w3.org/2000/svg"
 width="251.000000pt" height="251.000000pt" viewBox="0 0 251.000000 251.000000"
 preserveAspectRatio="xMidYMid meet">
<metadata>
Created by potrace 1.14, written by Peter Selinger 2001-2017
</metadata>
<g transform="translate(0.000000,251.000000) scale(0.100000,-0.100000)"
fill="#000000" stroke="none">
<path d="M1060 2500 c-8 -5 -28 -10 -43 -10 -29 0 -125 -24 -162 -40 -11 -5
-31 -12 -45 -15 -28 -8 -136 -61 -190 -94 -19 -11 -42 -24 -50 -28 -17 -8 -14
-6 -100 -75 -64 -51 -126 -111 -185 -179 -40 -46 -135 -191 -135 -206 0 -7 -4
-13 -10 -13 -5 0 -10 -5 -10 -10 0 -6 -10 -31 -23 -58 -12 -26 -31 -74 -41
-107 -10 -33 -22 -69 -27 -80 -35 -92 -49 -454 -21 -560 7 -27 18 -68 24 -90
84 -329 341 -639 658 -796 131 -65 120 -92 120 286 l0 325 100 0 100 0 0 175
c0 164 1 175 20 185 19 10 20 21 20 215 l0 205 35 0 c46 0 49 7 95 245 4 22
20 95 34 162 14 67 26 125 27 130 1 15 21 -42 29 -87 23 -115 30 -150 45 -215
8 -38 20 -97 26 -130 16 -93 23 -105 64 -105 l35 0 0 -205 c0 -169 2 -205 15
-212 12 -7 15 -42 17 -183 l3 -175 103 -3 102 -3 0 -287 c0 -284 5 -362 21
-362 16 0 123 53 189 94 72 44 175 123 233 180 104 101 230 286 272 402 10 27
22 53 27 58 4 6 8 19 8 31 0 12 4 25 9 31 4 5 14 36 21 69 64 306 39 564 -82
825 -68 147 -224 346 -350 448 -49 39 -145 102 -156 102 -6 0 -12 4 -14 8 -5
13 -175 92 -197 92 -11 0 -22 4 -25 8 -3 5 -40 16 -83 26 -43 10 -94 22 -114
27 -48 12 -370 11 -389 -1z m222 -175 l13 -40 59 -3 58 -3 -41 -30 c-44 -33
-54 -69 -29 -109 20 -31 1 -35 -36 -6 -43 32 -51 32 -93 0 -41 -31 -51 -25
-35 19 19 52 15 65 -30 94 l-42 28 54 3 c59 3 65 8 81 66 12 44 22 39 41 -19z"/>
</g>
</svg>
